<svg xmlns="http://www.w3.org/2000/svg" viewBox="0 0 900 500" role="img" aria-labelledby="t d"><title id="t">Location illustration</title><desc id="d">Map-style illustration showing the PERKIM Selangor office at the Shah Alam state mosque.</desc><rect width="900" height="500" rx="32" fill="#edf6f2"/><path d="M80 90l250 75 230-80 260 80v270l-260-80-230 80-250-75z" fill="#fff" stroke="#bdd9cd" stroke-width="8"/><path d="M330 165v270M560 85v270" stroke="#bdd9cd" stroke-width="6"/><path d="M110 290q170-90 340-10t340-35" fill="none" stroke="#d9b45b" stroke-width="20" stroke-linecap="round"/><path d="M580 215c0-72 58-130 130-130s130 58 130 130c0 100-130 210-130 210S580 315 580 215z" fill="#0f6b4f"/><circle cx="710" cy="210" r="66" fill="#fff"/><path d="M670 250h80v-55h-80zM685 195c5-30 22-48 25-50 3 2 20 20 25 50z" fill="#2478b8"/><text x="255" y="255" font-family="Arial" font-size="30" font-weight="700" fill="#0a3f35">Shah Alam</text><text x="220" y="300" font-family="Arial" font-size="21" fill="#52665e">Persiaran Masjid • Seksyen 14</text></svg>