<svg xmlns="http://www.w3.org/2000/svg" viewBox="0 0 120 120" role="img" aria-labelledby="title desc">
<title id="title">PBNS academic website emblem</title><desc id="desc">Green circular emblem with a mosque dome, crescent and PBNS letters.</desc>
<defs><linearGradient id="g" x1="0" y1="0" x2="1" y2="1"><stop stop-color="#0f6b4f"/><stop offset="1" stop-color="#0a3f35"/></linearGradient></defs>
<circle cx="60" cy="60" r="56" fill="url(#g)"/><circle cx="60" cy="60" r="49" fill="none" stroke="#d9b45b" stroke-width="2"/>
<path d="M35 73h50v19H35z" fill="#fff" opacity=".96"/><path d="M43 73V58h34v15" fill="#fff"/><path d="M48 58c2-12 9-19 12-20 3 1 10 8 12 20z" fill="#fff"/>
<path d="M60 31a11 11 0 1 0 8 18 13 13 0 1 1-8-18z" fill="#d9b45b"/>
<rect x="28" y="54" width="7" height="38" rx="2" fill="#fff"/><path d="M26 54h11l-5.5-9z" fill="#fff"/>
<rect x="85" y="54" width="7" height="38" rx="2" fill="#fff"/><path d="M83 54h11l-5.5-9z" fill="#fff"/>
<text x="60" y="107" text-anchor="middle" font-family="Arial,sans-serif" font-size="10" font-weight="700" fill="#fff">PBNS</text>
</svg>